<svg height="490" viewBox="0 0 2003 490" width="2003" xmlns="http://www.w3.org/2000/svg"><g fill="none" fill-rule="evenodd"><g fill="#2f3a3e" fill-rule="nonzero"><g transform="translate(523.174999 388.462372)"><path d="m36.0631643 60.4782826c0-1.7294042-.2034593-3.2638266-.6103779-4.6032671-.4069187-1.3394405-1.1190263-2.5517189-2.1363229-3.6368353s-2.4415118-2.1193679-4.2726457-3.1027546-4.1539611-1.9837284-6.9684817-3.001025c-3.0518898-1.0851163-5.8155455-2.2973948-8.2909672-3.6368353s-4.58631218-2.8738629-6.33267134-4.6032671c-1.74635915-1.7294042-3.09427714-3.7131326-4.04375396-5.9511851-.94947683-2.2380525-1.42421524-4.7982489-1.42421524-7.6805893 0-2.8823403.50017083-5.5442664 1.50051248-7.9857783 1.00034165-2.4415118 2.42455689-4.5693572 4.2726457-6.38353611 1.84808882-1.81417892 4.07766386-3.22991669 6.68872516-4.24721328 2.6110612-1.0172966 5.5273115-1.5259449 8.7487507-1.5259449 4.8152039 0 8.8759128 1.05968396 12.1821267 3.17905186 3.306214 2.11936791 5.8070681 4.88302363 7.5025624 8.29096723s2.5432415 7.044779 2.5432415 10.910506h-9.3591287c0-2.7806107-.449306-5.2475549-1.347918-7.4008327s-2.2889173-3.8487721-4.170916-5.086483-4.331988-1.8565663-7.3499679-1.8565663c-2.7127909 0-4.942366.5256033-6.6887251 1.5768097-1.7463592 1.0512065-3.0349349 2.4754218-3.8657271 4.2726457-.8307922 1.797224-1.2461883 3.8487722-1.2461883 6.1546445 0 1.5598547.2712791 2.9755925.8138372 4.2472132.5425582 1.2716208 1.3818279 2.4499893 2.5178091 3.5351057s2.5601965 2.085458 4.2726457 3.001025c1.7124493.9155669 3.738565 1.797224 6.0783472 2.6449711 3.6283578 1.186846 6.7311125 2.5093316 9.3082638 3.9674567 2.5771514 1.4581252 4.6795644 3.0942772 6.3072389 4.9084561 1.6276746 1.8141789 2.8229981 3.8657271 3.5859705 6.1546444.7629725 2.2889174 1.1444587 4.8745462 1.1444587 7.7568866 0 3.0179799-.5001708 5.7477257-1.5005125 8.1892376-1.0003416 2.4415118-2.4499893 4.5269698-4.3489429 6.256374-1.8989537 1.7294042-4.187871 3.0603673-6.866752 3.9928892-2.6788811.9325218-5.696861 1.3987828-9.0539397 1.3987828-2.9162503 0-5.7731582-.4747384-8.5707239-1.4242153-2.7975656-.9494768-5.33232962-2.373692-7.60429202-4.2726457-2.2719624-1.8989536-4.08614133-4.2472132-5.44253679-7.0447789-1.35639546-2.7975656-2.03459319-6.0444373-2.03459319-9.7406149h9.35912868c0 2.5432415.37300875 4.7219517 1.11902622 6.5361306.7460175 1.814179 1.7802691 3.3146914 3.1027547 4.5015375 1.3224855 1.186846 2.839953 2.0600256 4.5524022 2.6195387 1.7124493.5595131 3.5520606.8392697 5.5188341.8392697 2.7127909 0 4.9932307-.4747384 6.8413196-1.4242152 1.8480888-.9494769 3.2383941-2.3058723 4.170916-4.0691864s1.3987828-3.8487721 1.3987828-6.2563741z"/><path d="m66.1242787 24.1607942v55.0357458h-8.95221v-55.0357458zm-9.4608583-14.5982062c0-1.52594489.4238736-2.81452058 1.2716207-3.86572706.8477472-1.05120649 2.1193679-1.57680973 3.8148623-1.57680973 1.6954943 0 2.9755925.52560324 3.8402946 1.57680973.8647021 1.05120648 1.2970532 2.33978217 1.2970532 3.86572706 0 1.4581251-.4323511 2.7043135-1.2970532 3.738565s-2.1448003 1.5513773-3.8402946 1.5513773c-1.6954944 0-2.9671151-.5171258-3.8148623-1.5513773-.8477471-1.0342515-1.2716207-2.2804399-1.2716207-3.738565z"/><path d="m89.3695059 35.0967326v44.0998074h-8.95221v-55.0357458h8.4435617zm-1.8311338 14.4964764-4.1709161-.1525944c-.0339099-3.7639974.3390989-7.2482383 1.1190263-10.4527226.7799274-3.2044842 1.9582959-5.9935724 3.5351057-8.3672645 1.5768097-2.373692 3.560538-4.2133034 5.951185-5.518834s5.1797352-1.9582959 8.367265-1.9582959c2.102413 0 4.060708.3645312 5.874887 1.0935938s3.399467 1.8735212 4.755862 3.433376 2.416079 3.5605381 3.179052 6.0020499c.762972 2.4415119 1.144458 5.391672 1.144458 8.8504804v36.6735423h-9.003074v-36.2157588c0-2.8823404-.381487-5.1882127-1.144459-6.9176169s-1.839611-2.9925475-3.229917-3.7894298c-1.390305-.7968823-3.05189-1.1953235-4.9847531-1.1953235-2.2041426 0-4.0437539.4916934-5.518834 1.4750801s-2.6449711 2.3397821-3.5096732 4.0691863c-.8647022 1.7294043-1.4750801 3.7046552-1.8311339 5.9257527-.3560538 2.2210976-.5340807 4.5693572-.5340807 7.0447789zm29.6541959-5.1882126-6.00205 1.9328635c-.03391-3.0179799.339099-5.9172752 1.119026-8.6978859.779928-2.7806106 1.941341-5.2560324 3.484241-7.4262651s3.467286-3.8911595 5.773158-5.1627802c2.305872-1.2716208 4.984754-1.9074311 8.036643-1.9074311 2.509332 0 4.730429.3899636 6.663293 1.169891s3.569016 1.9752509 4.908456 3.5859705c1.339441 1.6107197 2.34826 3.6707453 3.026457 6.1800769.678198 2.5093316 1.017297 5.4934016 1.017297 8.95221v36.164894h-9.003075v-36.2666237c0-3.0857996-.381486-5.4849241-1.144458-7.1973734-.762973-1.7124492-1.839612-2.9162502-3.229917-3.6114029-1.390306-.6951527-3.05189-1.042729-4.984754-1.042729-1.559854 0-2.941682.3560538-4.145483 1.0681614s-2.21262 1.6870169-3.026458 2.9247277c-.813837 1.2377109-1.432692 2.6534487-1.856566 4.2472133-.423873 1.5937647-.63581 3.289259-.63581 5.086483z"/><path d="m167.803073 34.7406787v65.6156303h-9.003074v-76.1955148h8.189237zm30.773223 14.4456117v5.1373478c0 4.3404655-.398442 8.1298953-1.195324 11.3682895-.796882 3.2383941-1.966773 5.9342301-3.509673 8.0875079s-3.433376 3.7639974-5.671429 4.8321588c-2.238052 1.0681615-4.798249 1.6022422-7.680589 1.6022422s-5.383195-.5510357-7.502562-1.653107c-2.119368-1.1020713-3.899637-2.7043134-5.340808-4.8067264-1.44117-2.102413-2.577151-4.637177-3.407943-7.6042921-.830792-2.967115-1.398783-6.2987614-1.703972-9.994939v-7.8331838c.305189-3.8996369.864702-7.4008327 1.678539-10.5035874.813838-3.1027546 1.941341-5.7477257 3.382512-7.9349134 1.44117-2.1871877 3.221439-3.8572496 5.340807-5.0101857 2.119368-1.1529362 4.603267-1.7294042 7.451697-1.7294042 2.95016 0 5.552744.5086483 7.807752 1.5259448 2.255007 1.0172966 4.153961 2.5856289 5.696861 4.7049968 1.542899 2.1193679 2.704313 4.8152039 3.48424 8.0875079.779928 3.2723041 1.169892 7.1804185 1.169892 11.7243433zm-9.003075 5.1373478v-5.1373478c0-3.0518898-.228892-5.7138159-.686676-7.9857783-.457783-2.2719624-1.178368-4.1539611-2.161755-5.6459961s-2.221097-2.6110612-3.713132-3.3570787-3.289259-1.1190263-5.391672-1.1190263c-1.797224 0-3.382512.3730088-4.755862 1.1190263s-2.551719 1.7548366-3.535106 3.0264573c-.983386 1.2716208-1.797224 2.712791-2.441511 4.3235106-.644288 1.6107196-1.119027 3.2807815-1.424216 5.0101857v15.4120434c.576468 2.1702328 1.339441 4.2133034 2.288918 6.129212.949476 1.9159086 2.229575 3.4672859 3.840294 4.6541319 1.61072 1.1868461 3.653791 1.7802691 6.129212 1.7802691 2.068503 0 3.848772-.3730088 5.340807-1.1190263s2.721269-1.8735212 3.687701-3.3825112c.966431-1.5089899 1.678539-3.4079436 2.136322-5.6968609.457784-2.2889173.686676-4.9593209.686676-8.0112107z"/><path d="m219.837794 1.06816143v78.12837857h-8.95221v-78.12837857z"/><path d="m246.847019 73.499679 12.258424-49.3388848h9.562588l-18.158744 63.5301724c-.440829 1.3563954-1.025774 2.822998-1.754837 4.3998077-.729062 1.5768098-1.653107 3.0773222-2.772133 4.5015375-1.119026 1.4242152-2.458467 2.5856288-4.018322 3.4842412-1.559854.898612-3.390988 1.347918-5.493401 1.347918-.644288 0-1.466603-.10173-2.466945-.305189-1.000341-.20346-1.720926-.373009-2.161755-.508649v-7.6297241c.20346.0339098.525603.0762972.966432.127162.440828.0508649.762972.0762973.966432.0762973 1.763314 0 3.263826-.2797566 4.501537-.8392697s2.297395-1.492035 3.179052-2.7975657c.881657-1.3055306 1.627675-3.0942771 2.238053-5.3662395zm-7.934913-49.3388848 10.935938 42.726457 2.339782 9.9186418-6.408968 3.4588084-16.683665-56.1039072z"/><path d="m330.214475 68.5149257v-67.44676427h8.95221v78.12837857h-8.189238zm-30.773222-14.1912875v-5.1373478c0-4.5439248.440829-8.4520392 1.322486-11.7243433.881657-3.272304 2.136322-5.96814 3.763997-8.0875079s3.577493-3.6877002 5.849455-4.7049968c2.271963-1.0172965 4.781294-1.5259448 7.527995-1.5259448 2.848431 0 5.29842.576468 7.349968 1.7294042 2.051548 1.1529361 3.772475 2.822998 5.16278 5.0101857 1.390306 2.1871877 2.4839 4.8321588 3.280782 7.9349134.796882 3.1027547 1.330963 6.6039505 1.602242 10.5035874v6.866752c-.305189 3.8657271-.856225 7.3414905-1.653107 10.4272901-.796882 3.0857997-1.890476 5.7138159-3.280782 7.8840486-1.390305 2.1702328-3.119709 3.8318172-5.188212 4.9847534-2.068503 1.1529361-4.52697 1.7294042-7.3754 1.7294042-2.712791 0-5.188213-.5340807-7.426266-1.6022422-2.238052-1.0681614-4.179393-2.678881-5.824023-4.8321588-1.644629-2.1532778-2.907772-4.8491138-3.789429-8.0875079-.881657-3.2383942-1.322486-7.027824-1.322486-11.3682895zm9.003075-5.1373478v5.1373478c0 3.0518898.220414 5.7053384.661243 7.9603459.440828 2.2550074 1.135981 4.1200512 2.085458 5.5951313.949476 1.47508 2.161755 2.5686739 3.636835 3.2807815s3.246872 1.0681614 5.315375 1.0681614c2.509331 0 4.560879-.610378 6.154644-1.8311339s2.873863-2.839953 3.840295-4.8575912c.966432-2.0176383 1.737881-4.1963485 2.31435-6.5361306v-14.4456117c-.339099-1.7294042-.830793-3.3994661-1.475081-5.0101857-.644287-1.6107196-1.449647-3.0518898-2.416079-4.3235106-.966432-1.2716207-2.136323-2.2804398-3.509673-3.0264573-1.373351-.7460175-2.975593-1.1190263-4.806727-1.1190263-2.068503 0-3.857249.3730088-5.366239 1.1190263s-2.729746 1.8650437-3.662268 3.3570787-1.627674 3.3740337-2.085458 5.6459961c-.457783 2.2719624-.686675 4.9338885-.686675 7.9857783z"/><path d="m372.737473 80.2138366c-3.289259 0-6.256374-.4916934-8.901346-1.4750801-2.644971-.9833867-4.899978-2.4838992-6.765022-4.5015374-1.865044-2.0176383-3.289259-4.5693572-4.272646-7.6551569-.983386-3.0857997-1.47508-6.7311125-1.47508-10.9359384v-6.2055092c0-4.8491138.567991-8.9522101 1.703972-12.3092889 1.135981-3.3570787 2.670404-6.0613922 4.603267-8.1129403 1.932864-2.0515481 4.120051-3.5435831 6.561563-4.476105s4.950844-1.3987828 7.527995-1.3987828c3.458809 0 6.408969.5595131 8.85048 1.6785393 2.441512 1.1190263 4.425241 2.7806107 5.951186 4.9847534 1.525944 2.2041426 2.653448 4.9169335 3.382511 8.1383727.729062 3.2214392 1.093594 6.9345718 1.093594 11.1393977v5.2390775h-34.384625v-7.6805893h25.38155v-1.2716207c-.13564-2.8484305-.517126-5.3577621-1.144459-7.5279948-.627333-2.1702328-1.653107-3.8742046-3.077322-5.1119154-1.424215-1.2377109-3.441854-1.8565663-6.052915-1.8565663-1.661584 0-3.196007.2797565-4.603267.8392697-1.40726.5595131-2.611061 1.5259449-3.611403 2.8992953s-1.780269 3.2638266-2.339782 5.6714285-.83927 5.4594917-.83927 9.1556694v6.2055092c0 2.9501601.279757 5.4849241.83927 7.604292.559513 2.119368 1.390305 3.8657271 2.492377 5.2390775 1.102071 1.3733504 2.458466 2.390647 4.069186 3.0518898s3.450331.9918642 5.518834.9918642c3.01798 0 5.510357-.5849456 7.47713-1.7548366 1.966773-1.1698911 3.679223-2.6704036 5.137348-4.5015375l4.730429 5.6459961c-.983387 1.3903054-2.263485 2.7212684-3.840295 3.9928892-1.576809 1.2716207-3.509673 2.3058722-5.79859 3.1027546-2.288918.7968823-5.027141 1.1953235-8.21467 1.1953235z"/><path d="m428.587056 65.1069821c0-1.3903053-.339099-2.6110612-1.017297-3.6622677s-1.788746-2.0685031-3.331646-3.0518898-3.619881-2.0345932-6.230942-3.1536194c-2.543241-1.0512065-4.823681-2.0939355-6.841319-3.1281871-2.017639-1.0342515-3.72161-2.1617552-5.111916-3.3825112-1.390305-1.2207559-2.449989-2.6364936-3.179052-4.2472132-.729062-1.6107197-1.093593-3.5181508-1.093593-5.7222934s.415396-4.2472133 1.246188-6.129212 2.009161-3.5351057 3.535106-4.9593209c1.525944-1.4242152 3.357078-2.534764 5.493401-3.3316463 2.136323-.7968824 4.52697-1.1953235 7.171941-1.1953235 3.763998 0 6.968482.7290625 9.613453 2.1871876 2.644971 1.4581252 4.671087 3.450331 6.078347 5.9766175 1.40726 2.5262866 2.110891 5.3662396 2.110891 8.519859h-8.95221c0-1.5259449-.339099-2.967115-1.017297-4.3235105s-1.678539-2.4669443-3.001025-3.3316464-2.933205-1.2970531-4.832159-1.2970531c-2.000683 0-3.628358.3560538-4.883024 1.0681614-1.254665.7121076-2.161755 1.636152-2.721268 2.7721332s-.83927 2.3821696-.83927 3.738565c0 1.0172966.144117 1.8904762.432351 2.6195388.288234.7290625.788405 1.4072602 1.500513 2.0345931s1.687017 1.2716208 2.924728 1.9328636c1.23771.6612428 2.822998 1.4157377 4.755861 2.2634849 3.730088 1.4581251 6.866752 2.9332052 9.409994 4.4252402 2.543241 1.492035 4.476105 3.2383942 5.79859 5.2390775 1.322486 2.0006833 1.983729 4.476105 1.983729 7.4262651 0 2.407602-.432351 4.5863122-1.297053 6.5361306-.864703 1.9498185-2.093936 3.6198804-3.687701 5.0101858-1.593764 1.3903053-3.501195 2.4499893-5.722293 3.1790518-2.221098.7290626-4.704997 1.0935939-7.451698 1.0935939-4.137006 0-7.638201-.8223148-10.503587-2.4669443-2.865385-1.6446295-5.035618-3.7979073-6.510698-6.4598333-1.47508-2.6619261-2.21262-5.5188341-2.21262-8.5707239h9.003075c.101729 2.5771514.686675 4.5778347 1.754836 6.0020499 1.068162 1.4242153 2.365215 2.407602 3.89116 2.9501602s3.05189.8138373 4.577834.8138373c2.000684 0 3.679223-.2967116 5.035619-.8901346 1.356395-.593423 2.382169-1.4496476 3.077322-2.5686739.695152-1.1190262 1.042729-2.4245569 1.042729-3.9165919z"/><path d="m459.055089 24.1607942v55.0357458h-8.95221v-55.0357458zm-9.460858-14.5982062c0-1.52594489.423873-2.81452058 1.27162-3.86572706.847747-1.05120649 2.119368-1.57680973 3.814863-1.57680973 1.695494 0 2.975592.52560324 3.840294 1.57680973.864702 1.05120648 1.297053 2.33978217 1.297053 3.86572706 0 1.4581251-.432351 2.7043135-1.297053 3.738565s-2.1448 1.5513773-3.840294 1.5513773c-1.695495 0-2.967116-.5171258-3.814863-1.5513773s-1.27162-2.2804399-1.27162-3.738565z"/><path d="m503.104031 24.1607942h8.087508v55.4935293c0 4.8491137-.839269 8.8504803-2.517809 12.0040998-1.678539 3.1536194-4.009844 5.4849241-6.993914 6.9939141-2.98407 1.5089896-6.425923 2.2634846-10.32556 2.2634846-1.390306 0-3.136665-.254324-5.239078-.762972-2.102413-.5086484-4.204826-1.2800984-6.307239-2.3143499s-3.831817-2.3313047-5.188212-3.8911595l3.713132-6.256374c1.932864 1.9667734 3.984412 3.3740337 6.154645 4.2217808 2.170232.8477472 4.238736 1.2716208 6.205509 1.2716208 2.339782 0 4.374375-.4238736 6.10378-1.2716208 1.729404-.8477471 3.068844-2.229575 4.018321-4.1454836s1.424215-4.4676275 1.424215-7.6551569v-43.8454833zm-31.637924 30.162844v-5.1373478c0-4.5439248.423874-8.4520392 1.271621-11.7243433.847747-3.272304 2.076981-5.96814 3.6877-8.0875079 1.61072-2.1193679 3.552061-3.6877002 5.824023-4.7049968 2.271963-1.0172965 4.815204-1.5259448 7.629725-1.5259448 2.84843 0 5.306897.576468 7.3754 1.7294042 2.068503 1.1529361 3.78943 2.822998 5.16278 5.0101857 1.373351 2.1871877 2.458467 4.8321588 3.255349 7.9349134.796883 3.1027547 1.347918 6.6039505 1.653107 10.5035874v6.866752c-.305189 3.8657271-.856224 7.3414905-1.653107 10.4272901-.796882 3.0857997-1.898953 5.7138159-3.306214 7.8840486-1.40726 2.1702328-3.145142 3.8318172-5.213645 4.9847534-2.068503 1.1529361-4.526969 1.7294042-7.3754 1.7294042-2.780611 0-5.289942-.5340807-7.527995-1.6022422-2.238052-1.0681614-4.162438-2.678881-5.773158-4.8321588s-2.84843-4.8491138-3.713133-8.0875079c-.864702-3.2383942-1.297053-7.027824-1.297053-11.3682895zm9.003075-5.1373478v5.1373478c0 3.0518898.220414 5.7053384.661243 7.9603459.440829 2.2550074 1.127504 4.1200512 2.060026 5.5951313.932521 1.47508 2.136322 2.5686739 3.611403 3.2807815 1.47508.7121076 3.246871 1.0681614 5.315374 1.0681614 2.509332 0 4.56088-.610378 6.154645-1.8311339 1.593764-1.2207559 2.873863-2.839953 3.840294-4.8575912.966432-2.0176383 1.737882-4.1963485 2.31435-6.5361306v-14.4456117c-.339099-1.7294042-.822315-3.3994661-1.449648-5.0101857s-1.432692-3.0518898-2.416079-4.3235106c-.983387-1.2716207-2.161755-2.2804398-3.535106-3.0264573-1.37335-.7460175-2.975592-1.1190263-4.806726-1.1190263-2.068503 0-3.848772.3730088-5.340807 1.1190263s-2.712791 1.8650437-3.662268 3.3570787-1.644629 3.3740337-2.085458 5.6459961-.661243 4.9338885-.661243 7.9857783z"/><path d="m533.673794 35.9105698v43.2859702h-9.003075v-55.0357458h8.494427zm-2.187188 13.6826392-3.662267-.1525944c-.03391-3.7639974.398441-7.2482383 1.297053-10.4527226.898612-3.2044842 2.187188-5.9935724 3.865727-8.3672645 1.678539-2.373692 3.6877-4.2133034 6.027482-5.518834s4.933889-1.9582959 7.782319-1.9582959c2.238053 0 4.272646.3645312 6.10378 1.0935938s3.390988 1.8904762 4.679564 3.4842408c1.288576 1.5937647 2.28044 3.6537903 2.975593 6.1800769.695152 2.5262865 1.042729 5.6036087 1.042729 9.2319666v36.0631643h-9.003075v-36.164894c0-2.8823404-.313667-5.1966901-.941-6.9430493-.627332-1.7463591-1.576809-3.0179799-2.84843-3.8148622s-2.873863-1.1953235-4.806726-1.1953235c-1.763314 0-3.407944.4916934-4.933889 1.4750801s-2.856908 2.3397821-3.992889 4.0691863c-1.135981 1.7294043-2.017638 3.7046552-2.644971 5.9257527-.627333 2.2210976-.941 4.5693572-.941 7.0447789z"/><path d="m594.81332 80.2138366c-3.289259 0-6.256374-.4916934-8.901346-1.4750801-2.644971-.9833867-4.899978-2.4838992-6.765022-4.5015374-1.865044-2.0176383-3.289259-4.5693572-4.272646-7.6551569-.983386-3.0857997-1.47508-6.7311125-1.47508-10.9359384v-6.2055092c0-4.8491138.567991-8.9522101 1.703972-12.3092889 1.135981-3.3570787 2.670404-6.0613922 4.603267-8.1129403 1.932864-2.0515481 4.120051-3.5435831 6.561563-4.476105s4.950844-1.3987828 7.527995-1.3987828c3.458808 0 6.408969.5595131 8.85048 1.6785393 2.441512 1.1190263 4.425241 2.7806107 5.951185 4.9847534 1.525945 2.2041426 2.653449 4.9169335 3.382512 8.1383727.729062 3.2214392 1.093593 6.9345718 1.093593 11.1393977v5.2390775h-34.384624v-7.6805893h25.38155v-1.2716207c-.13564-2.8484305-.517126-5.3577621-1.144459-7.5279948-.627333-2.1702328-1.653107-3.8742046-3.077322-5.1119154-1.424216-1.2377109-3.441854-1.8565663-6.052915-1.8565663-1.661584 0-3.196007.2797565-4.603267.8392697-1.40726.5595131-2.611061 1.5259449-3.611403 2.8992953s-1.780269 3.2638266-2.339782 5.6714285-.83927 5.4594917-.83927 9.1556694v6.2055092c0 2.9501601.279757 5.4849241.83927 7.604292.559513 2.119368 1.390305 3.8657271 2.492376 5.2390775 1.102072 1.3733504 2.458467 2.390647 4.069187 3.0518898 1.610719.6612428 3.450331.9918642 5.518834.9918642 3.01798 0 5.510356-.5849456 7.47713-1.7548366 1.966773-1.1698911 3.679223-2.6704036 5.137348-4.5015375l4.730429 5.6459961c-.983387 1.3903054-2.263485 2.7212684-3.840295 3.9928892-1.57681 1.2716207-3.509673 2.3058722-5.79859 3.1027546-2.288918.7968823-5.027141 1.1953235-8.21467 1.1953235z"/><path d="m652.799226 68.5149257v-67.44676427h8.95221v78.12837857h-8.189238zm-30.773222-14.1912875v-5.1373478c0-4.5439248.440828-8.4520392 1.322485-11.7243433.881657-3.272304 2.136323-5.96814 3.763997-8.0875079 1.627675-2.1193679 3.577494-3.6877002 5.849456-4.7049968 2.271962-1.0172965 4.781294-1.5259448 7.527995-1.5259448 2.84843 0 5.298419.576468 7.349968 1.7294042 2.051548 1.1529361 3.772475 2.822998 5.16278 5.0101857s2.483899 4.8321588 3.280781 7.9349134c.796883 3.1027547 1.330963 6.6039505 1.602243 10.5035874v6.866752c-.305189 3.8657271-.856225 7.3414905-1.653107 10.4272901-.796883 3.0857997-1.890477 5.7138159-3.280782 7.8840486-1.390305 2.1702328-3.11971 3.8318172-5.188213 4.9847534-2.068503 1.1529361-4.526969 1.7294042-7.3754 1.7294042-2.712791 0-5.188213-.5340807-7.426265-1.6022422-2.238053-1.0681614-4.179394-2.678881-5.824023-4.8321588-1.64463-2.1532778-2.907773-4.8491138-3.78943-8.0875079-.881657-3.2383942-1.322485-7.027824-1.322485-11.3682895zm9.003074-5.1373478v5.1373478c0 3.0518898.220415 5.7053384.661243 7.9603459.440829 2.2550074 1.135981 4.1200512 2.085458 5.5951313.949477 1.47508 2.161755 2.5686739 3.636836 3.2807815 1.47508.7121076 3.246871 1.0681614 5.315374 1.0681614 2.509332 0 4.56088-.610378 6.154645-1.8311339 1.593764-1.2207559 2.873863-2.839953 3.840294-4.8575912.966432-2.0176383 1.737882-4.1963485 2.31435-6.5361306v-14.4456117c-.339099-1.7294042-.830792-3.3994661-1.47508-5.0101857s-1.449648-3.0518898-2.416079-4.3235106c-.966432-1.2716207-2.136323-2.2804398-3.509674-3.0264573-1.37335-.7460175-2.975592-1.1190263-4.806726-1.1190263-2.068503 0-3.85725.3730088-5.36624 1.1190263s-2.729746 1.8650437-3.662267 3.3570787c-.932522 1.492035-1.627675 3.3740337-2.085458 5.6459961-.457784 2.2719624-.686676 4.9338885-.686676 7.9857783z"/><path d="m719.635612 24.1607942v7.2228058h-25.686739v-7.2228058zm-17.294042-13.3774503h9.003075v54.7814217c0 1.8650438.228891 3.2723041.686675 4.2217809.457783.9494768 1.042729 1.5768097 1.754836 1.8819987.712108.305189 1.475081.4577834 2.288918.4577834.610378 0 1.288575-.0762972 2.034593-.2288917.746017-.1525945 1.254666-.2797566 1.525945-.3814862l-.050865 7.6805893c-.610378.2373692-1.424215.4662609-2.441512.6866752-1.017296.2204142-2.305872.3306214-3.865727.3306214-1.932863 0-3.730087-.4577835-5.391672-1.3733504-1.661584-.915567-3.001025-2.4499893-4.018321-4.6032671-1.017297-2.1532778-1.525945-5.0610506-1.525945-8.7233183z"/><path d="m727.468796 54.3236382v-5.2390775c0-4.2726457.542558-8.0281656 1.627674-11.2665598 1.085117-3.2383941 2.594107-5.9427076 4.52697-8.1129403 1.932864-2.1702327 4.187871-3.8063848 6.765022-4.9084561 2.577152-1.1020713 5.340808-1.6531069 8.290968-1.6531069 3.01798 0 5.815545.5510356 8.392697 1.6531069 2.577151 1.1020713 4.840636 2.7382234 6.790454 4.9084561 1.949819 2.1702327 3.467286 4.8745462 4.552403 8.1129403 1.085116 3.2383942 1.627674 6.9939141 1.627674 11.2665598v5.2390775c0 4.2726457-.542558 8.0281657-1.627674 11.2665598-1.085117 3.2383942-2.594107 5.9427076-4.52697 8.1129404-1.932864 2.1702327-4.187871 3.7979073-6.765023 4.8830236-2.577151 1.0851164-5.357762 1.6276746-8.341832 1.6276746s-5.76468-.5425582-8.341832-1.6276746c-2.577151-1.0851163-4.840636-2.7127909-6.790455-4.8830236-1.949818-2.1702328-3.467285-4.8745462-4.552402-8.1129404-1.085116-3.2383941-1.627674-6.9939141-1.627674-11.2665598zm9.003075-5.2390775v5.2390775c0 3.0179799.305189 5.6629511.915566 7.9349135.610378 2.2719624 1.475081 4.170916 2.594107 5.6968609s2.424557 2.6704036 3.916592 3.433376c1.492035.7629725 3.119709 1.1444587 4.883023 1.1444587 2.034594 0 3.82334-.3814862 5.36624-1.1444587 1.5429-.7629724 2.822998-1.9074311 3.840295-3.433376 1.017296-1.5259449 1.780269-3.4248985 2.288917-5.6968609s.762972-4.9169336.762972-7.9349135v-5.2390775c0-3.0179799-.305189-5.6544735-.915567-7.909481-.610378-2.2550074-1.47508-4.1539611-2.594106-5.6968609-1.119026-1.5428999-2.433034-2.695836-3.942024-3.4588084-1.50899-.7629725-3.145142-1.1444587-4.908456-1.1444587-1.729405 0-3.340124.3814862-4.832159 1.1444587-1.492035.7629724-2.789088 1.9159085-3.89116 3.4588084-1.102071 1.5428998-1.958296 3.4418535-2.568674 5.6968609-.610377 2.2550075-.915566 4.8915011-.915566 7.909481z"/><path d="m817.041761 79.19654h-9.003075v-59.8170398c0-4.1709161.70363-7.6975443 2.11089-10.57988465 1.407261-2.88234035 3.424899-5.06952803 6.052915-6.56156304s5.739249-2.23805251 9.333697-2.23805251c2.136322 0 4.18787.29671151 6.154644.89013452 1.966773.59342302 4.001367 1.33096305 6.103779 2.2126201l-1.525944 7.93491348c-1.220756-.610378-2.712791-1.19532354-4.476105-1.75483666-1.763315-.55951313-3.611403-.83926969-5.544267-.83926969-3.390989 0-5.773158.90708946-7.146508 2.72126835-1.373351 1.814179-2.060026 4.5524023-2.060026 8.2146701zm8.901345-55.0357458v7.2228058h-25.076361v-7.2228058zm16.175016 0v55.0357458h-9.003075v-55.0357458z"/><path d="m876.706206 24.1607942v7.2228058h-25.686739v-7.2228058zm-17.294042-13.3774503h9.003075v54.7814217c0 1.8650438.228892 3.2723041.686675 4.2217809.457784.9494768 1.042729 1.5768097 1.754837 1.8819987.712107.305189 1.47508.4577834 2.288917.4577834.610378 0 1.288576-.0762972 2.034593-.2288917.746018-.1525945 1.254666-.2797566 1.525945-.3814862l-.050865 7.6805893c-.610378.2373692-1.424215.4662609-2.441511.6866752-1.017297.2204142-2.305873.3306214-3.865727.3306214-1.932864 0-3.730088-.4577835-5.391672-1.3733504-1.661585-.915567-3.001025-2.4499893-4.018322-4.6032671s-1.525945-5.0610506-1.525945-8.7233183z"/><path d="m924.112228 73.499679 12.258424-49.3388848h9.562588l-18.158745 63.5301724c-.440828 1.3563954-1.025774 2.822998-1.754836 4.3998077-.729063 1.5768098-1.653107 3.0773222-2.772133 4.5015375-1.119027 1.4242152-2.458467 2.5856288-4.018322 3.4842412-1.559855.898612-3.390989 1.347918-5.493402 1.347918-.644287 0-1.466602-.10173-2.466944-.305189-1.000342-.20346-1.720927-.373009-2.161755-.508649v-7.6297241c.203459.0339098.525603.0762972.966432.127162.440828.0508649.762972.0762973.966431.0762973 1.763314 0 3.263827-.2797566 4.501538-.8392697s2.297395-1.492035 3.179052-2.7975657c.881657-1.3055306 1.627674-3.0942771 2.238052-5.3662395zm-7.934914-49.3388848 10.935939 42.726457 2.339782 9.9186418-6.408969 3.4588084-16.683664-56.1039072z"/><path d="m952.087884 54.3236382v-5.2390775c0-4.2726457.542558-8.0281656 1.627675-11.2665598 1.085116-3.2383941 2.594106-5.9427076 4.526969-8.1129403 1.932864-2.1702327 4.187871-3.8063848 6.765023-4.9084561 2.577151-1.1020713 5.340807-1.6531069 8.290967-1.6531069 3.01798 0 5.815546.5510356 8.392697 1.6531069s4.840636 2.7382234 6.790455 4.9084561c1.949818 2.1702327 3.467286 4.8745462 4.552402 8.1129403 1.085116 3.2383942 1.627675 6.9939141 1.627675 11.2665598v5.2390775c0 4.2726457-.542559 8.0281657-1.627675 11.2665598-1.085116 3.2383942-2.594106 5.9427076-4.52697 8.1129404-1.932863 2.1702327-4.187871 3.7979073-6.765022 4.8830236-2.577152 1.0851164-5.357762 1.6276746-8.341832 1.6276746s-5.764681-.5425582-8.341832-1.6276746c-2.577152-1.0851163-4.840637-2.7127909-6.790455-4.8830236-1.949819-2.1702328-3.467286-4.8745462-4.552402-8.1129404-1.085117-3.2383941-1.627675-6.9939141-1.627675-11.2665598zm9.003075-5.2390775v5.2390775c0 3.0179799.305189 5.6629511.915567 7.9349135s1.47508 4.170916 2.594106 5.6968609 2.424557 2.6704036 3.916592 3.433376c1.492035.7629725 3.11971 1.1444587 4.883024 1.1444587 2.034593 0 3.823339-.3814862 5.366239-1.1444587 1.5429-.7629724 2.822998-1.9074311 3.840295-3.433376 1.017296-1.5259449 1.780269-3.4248985 2.288917-5.6968609.508649-2.2719624.762973-4.9169336.762973-7.9349135v-5.2390775c0-3.0179799-.305189-5.6544735-.915567-7.909481-.610378-2.2550074-1.47508-4.1539611-2.594107-5.6968609-1.119026-1.5428999-2.433034-2.695836-3.942024-3.4588084-1.50899-.7629725-3.145142-1.1444587-4.908456-1.1444587-1.729404 0-3.340124.3814862-4.832159 1.1444587-1.492035.7629724-2.789088 1.9159085-3.891159 3.4588084-1.102072 1.5428998-1.958296 3.4418535-2.568674 5.6968609-.610378 2.2550075-.915567 4.8915011-.915567 7.909481z"/><path d="m1034.08199 66.4803325v-42.3195383h9.00307v55.0357458h-8.54529zm1.67854-11.5971812 3.56054-.1017296c0 3.6622677-.31367 7.0447789-.941 10.1475335-.62734 3.1027546-1.64463 5.7901132-3.05189 8.0620755-1.40726 2.2719624-3.26383 4.043754-5.5697 5.3153748-2.30587 1.2716207-5.13735 1.9074311-8.49443 1.9074311-2.27196 0-4.33199-.3899637-6.18007-1.1698911-1.84809-.7799274-3.44186-1.9837284-4.7813-3.6114029-1.33944-1.6276746-2.37369-3.7470425-3.10275-6.3581037-.72907-2.6110613-1.0936-5.7477258-1.0936-9.4099936v-35.5036511h8.95221v35.6053808c0 2.4754217.22042 4.5184924.66125 6.129212.44082 1.6107196 1.03425 2.8823403 1.78027 3.8148622.74601.9325219 1.5768 1.5852872 2.49237 1.958296.91557.3730087 1.84809.5595131 2.79757.5595131 3.18753 0 5.73077-.7714499 7.62972-2.3143498 1.89896-1.5428998 3.26383-3.6283578 4.09462-6.256374s1.24619-5.5527439 1.24619-8.7741832z"/><path d="m1065.61818 32.8078152v46.3887248h-9.00307v-55.0357458h8.69789zm13.68264-8.95221.05087 8.7487507c-.74602-.1695494-1.41574-.2797566-2.00916-.3306214-.59343-.0508648-1.2801-.0762972-2.06003-.0762972-1.69549 0-3.17905.3390988-4.45067 1.0172966-1.27162.6781977-2.36522 1.6276745-3.28078 2.8484304-.91557 1.2207559-1.64463 2.6704036-2.18719 4.348943s-.91557 3.5181507-1.11903 5.518834l-2.33978 1.5259449c0-3.3231689.2628-6.4428784.78841-9.3591287.5256-2.9162502 1.34791-5.5018791 2.46694-7.7568865 1.11903-2.2550075 2.55172-4.0183216 4.29808-5.2899423 1.74636-1.2716208 3.84029-1.9074311 6.28181-1.9074311.54255 0 1.21227.0762972 2.00916.2288917.79688.1525945 1.314.3136664 1.55137.4832159z"/><path d="m1138.96527 65.1069821c0-1.3903053-.3391-2.6110612-1.0173-3.6622677s-1.78874-2.0685031-3.33164-3.0518898-3.61988-2.0345932-6.23095-3.1536194c-2.54324-1.0512065-4.82368-2.0939355-6.84132-3.1281871-2.01763-1.0342515-3.72161-2.1617552-5.11191-3.3825112-1.39031-1.2207559-2.44999-2.6364936-3.17905-4.2472132-.72907-1.6107197-1.0936-3.5181508-1.0936-5.7222934s.4154-4.2472133 1.24619-6.129212 2.00916-3.5351057 3.53511-4.9593209c1.52594-1.4242152 3.35708-2.534764 5.4934-3.3316463 2.13632-.7968824 4.52697-1.1953235 7.17194-1.1953235 3.764 0 6.96848.7290625 9.61345 2.1871876 2.64497 1.4581252 4.67109 3.450331 6.07835 5.9766175 1.40726 2.5262866 2.11089 5.3662396 2.11089 8.519859h-8.95221c0-1.5259449-.3391-2.967115-1.0173-4.3235105-.67819-1.3563955-1.67854-2.4669443-3.00102-3.3316464-1.32249-.8647021-2.93321-1.2970531-4.83216-1.2970531-2.00068 0-3.62836.3560538-4.88302 1.0681614-1.25467.7121076-2.16176 1.636152-2.72127 2.7721332-.55952 1.1359812-.83927 2.3821696-.83927 3.738565 0 1.0172966.14412 1.8904762.43235 2.6195388.28823.7290625.7884 1.4072602 1.50051 2.0345931s1.68702 1.2716208 2.92473 1.9328636 2.823 1.4157377 4.75586 2.2634849c3.73009 1.4581251 6.86675 2.9332052 9.40999 4.4252402 2.54325 1.492035 4.47611 3.2383942 5.7986 5.2390775 1.32248 2.0006833 1.98372 4.476105 1.98372 7.4262651 0 2.407602-.43235 4.5863122-1.29705 6.5361306-.8647 1.9498185-2.09394 3.6198804-3.6877 5.0101858-1.59376 1.3903053-3.5012 2.4499893-5.72229 3.1790518-2.2211.7290626-4.705 1.0935939-7.4517 1.0935939-4.13701 0-7.6382-.8223148-10.50359-2.4669443-2.86538-1.6446295-5.03562-3.7979073-6.5107-6.4598333-1.47508-2.6619261-2.21262-5.5188341-2.21262-8.5707239h9.00308c.10173 2.5771514.68667 4.5778347 1.75484 6.0020499 1.06816 1.4242153 2.36521 2.407602 3.89115 2.9501602 1.52595.5425582 3.05189.8138373 4.57784.8138373 2.00068 0 3.67922-.2967116 5.03562-.8901346 1.35639-.593423 2.38217-1.4496476 3.07732-2.5686739.69515-1.1190262 1.04273-2.4245569 1.04273-3.9165919z"/><path d="m1168.77206 1.06816143v78.12837857h-9.00308v-78.12837857zm-2.18719 48.52504757-3.66227-.1525944c-.03391-3.7639974.39844-7.2482383 1.29706-10.4527226.89861-3.2044842 2.18718-5.9935724 3.86572-8.3672645 1.67854-2.373692 3.6877-4.2133034 6.02749-5.518834 2.33978-1.3055306 4.93388-1.9582959 7.78232-1.9582959 2.23805 0 4.27264.3645312 6.10377 1.0935938 1.83114.7290626 3.39099 1.8904762 4.67957 3.4842408 1.28857 1.5937647 2.28044 3.6537903 2.97559 6.1800769.69515 2.5262865 1.04273 5.6036087 1.04273 9.2319666v36.0631643h-9.00307v-36.164894c0-2.8823404-.31367-5.1966901-.941-6.9430493-.62734-1.7463591-1.57681-3.0179799-2.84843-3.8148622s-2.87387-1.1953235-4.80673-1.1953235c-1.76331 0-3.40794.4916934-4.93389 1.4750801-1.52594.9833867-2.85691 2.3397821-3.99289 4.0691863-1.13598 1.7294043-2.01764 3.7046552-2.64497 5.9257527-.62733 2.2210976-.941 4.5693572-.941 7.0447789z"/><path d="m1229.75899 80.2138366c-3.28926 0-6.25637-.4916934-8.90135-1.4750801-2.64497-.9833867-4.89997-2.4838992-6.76502-4.5015374-1.86504-2.0176383-3.28926-4.5693572-4.27264-7.6551569-.98339-3.0857997-1.47508-6.7311125-1.47508-10.9359384v-6.2055092c0-4.8491138.56799-8.9522101 1.70397-12.3092889 1.13598-3.3570787 2.6704-6.0613922 4.60327-8.1129403 1.93286-2.0515481 4.12005-3.5435831 6.56156-4.476105s4.95084-1.3987828 7.52799-1.3987828c3.45881 0 6.40897.5595131 8.85048 1.6785393 2.44152 1.1190263 4.42524 2.7806107 5.95119 4.9847534 1.52594 2.2041426 2.65345 4.9169335 3.38251 8.1383727s1.09359 6.9345718 1.09359 11.1393977v5.2390775h-34.38462v-7.6805893h25.38155v-1.2716207c-.13564-2.8484305-.51713-5.3577621-1.14446-7.5279948-.62733-2.1702328-1.65311-3.8742046-3.07732-5.1119154-1.42422-1.2377109-3.44186-1.8565663-6.05292-1.8565663-1.66158 0-3.196.2797565-4.60326.8392697-1.40726.5595131-2.61107 1.5259449-3.61141 2.8992953s-1.78027 3.2638266-2.33978 5.6714285-.83927 5.4594917-.83927 9.1556694v6.2055092c0 2.9501601.27976 5.4849241.83927 7.604292.55951 2.119368 1.39031 3.8657271 2.49238 5.2390775s2.45846 2.390647 4.06918 3.0518898 3.45034.9918642 5.51884.9918642c3.01798 0 5.51035-.5849456 7.47713-1.7548366 1.96677-1.1698911 3.67922-2.6704036 5.13735-4.5015375l4.73043 5.6459961c-.98339 1.3903054-2.26349 2.7212684-3.8403 3.9928892-1.57681 1.2716207-3.50967 2.3058722-5.79859 3.1027546-2.28892.7968823-5.02714 1.1953235-8.21467 1.1953235z"/><path d="m1268.56885 1.06816143v78.12837857h-8.95221v-78.12837857z"/><path d="m1292.47532 1.06816143v78.12837857h-8.95221v-78.12837857z"/><path d="m1340.28826 1.06816143v78.12837857h-8.95221v-78.12837857z"/><path d="m1364.19473 24.1607942v55.0357458h-8.95221v-55.0357458zm-9.46085-14.5982062c0-1.52594489.42387-2.81452058 1.27162-3.86572706.84774-1.05120649 2.11937-1.57680973 3.81486-1.57680973s2.97559.52560324 3.84029 1.57680973c.86471 1.05120648 1.29706 2.33978217 1.29706 3.86572706 0 1.4581251-.43235 2.7043135-1.29706 3.738565-.8647 1.0342515-2.1448 1.5513773-3.84029 1.5513773s-2.96712-.5171258-3.81486-1.5513773c-.84775-1.0342515-1.27162-2.2804399-1.27162-3.738565z"/><path d="m1391.40742 79.19654h-9.00308v-60.8343364c0-3.9674568.63581-7.3160581 1.90744-10.04580393 1.27162-2.72974586 3.08579-4.79824894 5.44253-6.20550923s5.16278-2.11089044 8.41813-2.11089044c.91557 0 1.83961.06781977 2.77213.20345932.93253.13563955 1.82266.33909886 2.67041.61037796l-.40692 7.6805893c-.54256-.16954944-1.19532-.28823404-1.9583-.35605381-.76297-.06781978-1.48355-.10172966-2.16175-.10172966-1.62768 0-3.01798.39844116-4.17092 1.1953235-1.15293.79688229-2.02611 1.95829599-2.61954 3.48424079-.59342 1.5259449-.89013 3.4079436-.89013 5.6459962zm9.35913-55.0357458v7.2228058h-25.53415v-7.2228058z"/><path d="m1429.86123 80.2138366c-3.28926 0-6.25637-.4916934-8.90134-1.4750801-2.64498-.9833867-4.89998-2.4838992-6.76503-4.5015374-1.86504-2.0176383-3.28926-4.5693572-4.27264-7.6551569-.98339-3.0857997-1.47508-6.7311125-1.47508-10.9359384v-6.2055092c0-4.8491138.56799-8.9522101 1.70397-12.3092889 1.13598-3.3570787 2.6704-6.0613922 4.60327-8.1129403 1.93286-2.0515481 4.12005-3.5435831 6.56156-4.476105s4.95084-1.3987828 7.52799-1.3987828c3.45881 0 6.40897.5595131 8.85048 1.6785393 2.44152 1.1190263 4.42524 2.7806107 5.95119 4.9847534 1.52594 2.2041426 2.65345 4.9169335 3.38251 8.1383727s1.09359 6.9345718 1.09359 11.1393977v5.2390775h-34.38462v-7.6805893h25.38155v-1.2716207c-.13564-2.8484305-.51713-5.3577621-1.14446-7.5279948-.62733-2.1702328-1.65311-3.8742046-3.07732-5.1119154-1.42422-1.2377109-3.44186-1.8565663-6.05292-1.8565663-1.66158 0-3.196.2797565-4.60326.8392697-1.40726.5595131-2.61106 1.5259449-3.61141 2.8992953-1.00034 1.3733504-1.78027 3.2638266-2.33978 5.6714285s-.83927 5.4594917-.83927 9.1556694v6.2055092c0 2.9501601.27976 5.4849241.83927 7.604292.55951 2.119368 1.39031 3.8657271 2.49238 5.2390775s2.45846 2.390647 4.06918 3.0518898 3.45034.9918642 5.51884.9918642c3.01798 0 5.51036-.5849456 7.47713-1.7548366 1.96677-1.1698911 3.67922-2.6704036 5.13735-4.5015375l4.73043 5.6459961c-.98339 1.3903054-2.26349 2.7212684-3.8403 3.9928892-1.57681 1.2716207-3.50967 2.3058722-5.79859 3.1027546-2.28892.7968823-5.02714 1.1953235-8.21467 1.1953235z"/><path d="m1459.56629 74.2117867c0-1.5937647.50017-2.9416827 1.50051-4.043754s2.44999-1.653107 4.34895-1.653107c1.89895 0 3.3486.5510357 4.34894 1.653107s1.50051 2.4499893 1.50051 4.043754c0 1.5598547-.50017 2.8823403-1.50051 3.9674567s-2.44999 1.6276745-4.34894 1.6276745c-1.89896 0-3.34861-.5425581-4.34895-1.6276745s-1.50051-2.407602-1.50051-3.9674567z"/></g><g transform="translate(537.321895 79.679328)"><path d="m75.6498741 273.005414h-49.3851256l.369926-49.940015h49.0151996c9.2481509 0 16.8008074-2.034593 22.6579697-6.10378 5.8571622-4.069186 10.2037932-10.820336 13.0398922-20.25345 2.8361-9.433114 4.25415-22.041426 4.25415-37.824937v-41.246753c0-11.837633-.770679-21.825636-2.312038-29.9640087-1.541358-8.1383728-3.91505-14.6737328-7.121076-19.6060799s-7.460175-8.539126-12.7624482-10.8203365c-5.3022732-2.2812106-11.5910158-3.4218158-18.8662278-3.4218158h-49.2001626v-50.12497775h49.2001626c15.7835108 0 30.118145 2.55865507 43.003902 7.67596525 12.885756 5.1173101 24.014365 12.6391395 33.385824 22.5654881 9.37146 9.9263486 16.585017 21.9181176 21.640673 35.9753069s7.583484 30.0873174 7.583484 48.0903844v40.876827c0 17.879758-2.527828 33.879059-7.583484 47.997903s-12.238386 26.110613-21.548191 35.975307-20.345932 17.355696-33.10838 22.473006c-12.762449 5.117311-26.8504651 7.675966-42.2640499 7.675966zm-12.3925221-269.30615365v269.30615365h-63.257352v-269.30615365z"/><path d="m408.398342 118.191368v40.691864c0 19.359462-2.404519 36.37606-7.213557 51.049793-4.809039 14.673732-11.65267 26.973773-20.530895 36.900122-8.878225 9.926348-19.39029 17.386523-31.536195 22.380525-12.145904 4.994001-25.617378 7.491002-40.414419 7.491002-14.92035 0-28.484305-2.497001-40.691864-7.491002-12.207559-4.994002-22.750451-12.454177-31.628676-22.380525-8.878225-9.926349-15.721856-22.22639-20.530895-36.900122-4.809038-14.673733-7.213557-31.690331-7.213557-51.049793v-40.691864c0-19.3594624 2.404519-36.4377143 7.213557-51.2347557 4.809039-14.7970414 11.621843-27.1279092 20.438414-36.9926035 8.81657-9.8646942 19.328635-17.3248693 31.536194-22.38052509 12.207559-5.05565581 25.771514-7.58348371 40.691864-7.58348371 14.797041 0 28.330169 2.5278279 40.599382 7.58348371 12.269214 5.05565579 22.781279 12.51583089 31.536195 22.38052509 8.754916 9.8646943 15.56772 22.1955621 20.438413 36.9926035s7.306039 31.8752933 7.306039 51.2347557zm-64.182167 40.691864v-41.06179c0-12.08425-.739852-22.380525-2.219556-30.8888238s-3.69926-15.4135848-6.658668-20.715858c-2.959409-5.3022731-6.658669-9.1864965-11.097781-11.6526701-4.439113-2.4661735-9.679732-3.6992603-15.721857-3.6992603-6.288743 0-11.65267 1.2330868-16.091782 3.6992603-4.439113 2.4661736-8.107546 6.350397-11.0053 11.6526701-2.897754 5.3022732-5.024829 12.2075592-6.381224 20.715858-1.356396 8.5082988-2.034593 18.8045738-2.034593 30.8888238v41.06179c0 11.960942.678197 22.164735 2.034593 30.611379 1.356395 8.446645 3.48347 15.382758 6.381224 20.80834s6.627841 9.402287 11.190263 11.930114c4.562421 2.527828 9.926348 3.791742 16.091782 3.791742 5.918817 0 11.128608-1.263914 15.629375-3.791742 4.500767-2.527827 8.200027-6.504532 11.097781-11.930114s5.086483-12.361695 6.566187-20.80834c1.479704-8.446644 2.219556-18.650437 2.219556-30.611379z"/><path d="m543.051419 3.69926035v269.30615365h-63.442315v-269.30615365zm65.291945 0v50.12497775h-192.176575v-50.12497775z"/><path d="m698.975243 3.69926035v269.30615365h-63.257352v-269.30615365zm82.678469 112.08758865v49.940015h-99.88003v-49.940015zm7.583483-112.08758865v50.12497775h-107.463513v-50.12497775z"/><path d="m881.903667 3.69926035v269.30615365h-63.072389v-269.30615365z"/><path d="m1076.11484 223.065399v49.940015h-113.197371v-49.940015zm-91.001809-219.36613865v269.30615365h-63.257352v-269.30615365z"/><path d="m1262.37259 223.065399v49.940015h-117.82144v-49.940015zm-95.81084-219.36613865v269.30615365h-63.25735v-269.30615365zm80.45891 106.90862365v48.275348h-102.46951v-48.275348zm15.90682-106.90862365v50.12497775h-118.37633v-50.12497775z"/><path d="m1401.27982 201.424726c0-4.192495-.40075-7.984237-1.20226-11.375226-.80151-3.390988-2.34286-6.566187-4.62408-9.525595-2.28121-2.959408-5.70302-5.949644-10.26544-8.970706-4.56242-3.021063-10.6662-6.196261-18.31134-9.525596-9.61808-3.945877-19.05119-8.415817-28.29934-13.409819-9.24815-4.994001-17.54066-10.851163-24.87753-17.571486s-13.22485-14.612079-17.66397-23.675266c-4.43911-9.0631882-6.65867-19.6369074-6.65867-31.7211579 0-11.5910157 2.25039-22.0414262 6.75115-31.3512314 4.50077-9.3098052 10.72786-17.263215 18.68127-23.8602293s17.3557-11.65267007 28.20686-15.1669674 22.6888-5.271446 35.5129-5.271446c17.0166 0 32.02943 3.42181582 45.03849 10.2654475 13.00907 6.8436316 23.18204 16.5233629 30.5189 29.0391937 7.33687 12.5158308 11.0053 27.2820451 11.0053 44.2986427h-63.07239c0-6.7819773-.86316-12.7624482-2.58948-17.9414127s-4.40829-9.2481509-8.04589-12.2075592c-3.63761-2.9594082-8.41582-4.4391124-14.33464-4.4391124-5.30227 0-9.77221 1.2330868-13.40981 3.6992604-3.63761 2.4661735-6.38123 5.7646807-8.23086 9.8955214s-2.77444 8.6624346-2.77444 13.5947818c0 4.0691864.92481 7.7376195 2.77444 11.0052995s4.40829 6.3195698 7.67597 9.1556694 7.09025 5.5488909 11.4677 8.1383729c4.37746 2.589482 9.09402 5.11731 14.14967 7.583484 12.20756 4.562421 23.0279 9.648904 32.46101 15.259448 9.43312 5.610545 17.3557 11.960942 23.76775 19.051191s11.25192 15.136141 14.5196 24.137674c3.26768 9.001534 4.90152 19.1745 4.90152 30.518898 0 12.08425-1.94211 22.812105-5.82634 32.183565-3.88422 9.37146-9.52559 17.294042-16.92411 23.767748-7.39852 6.473705-16.30757 11.375225-26.72716 14.70456-10.41958 3.329334-22.16473 4.994001-35.23545 4.994001-11.96094 0-23.7061-1.757149-35.23546-5.271446s-21.94894-8.939879-31.25875-16.276745c-9.3098-7.336867-16.73915-16.769981-22.28804-28.299342-5.54889-11.529362-8.32334-25.247452-8.32334-41.154272h63.62728c0 7.891756.61654 14.550425 1.84963 19.976006 1.23309 5.425582 3.1752 9.772213 5.82634 13.039893 2.65113 3.26768 6.07295 5.610545 10.26544 7.028595 4.1925 1.41805 9.37146 2.127074 15.5369 2.127074 5.6722 0 10.08048-1.202259 13.22485-3.606778 3.14437-2.40452 5.3331-5.610545 6.56619-9.618077s1.84963-8.415818 1.84963-13.224856z"/></g></g><g transform="translate(.363158 .807895)"><path d="m121.229029 0c-66.8400247 0-121.229029 54.3872298-121.229029 121.205727v242.504545c0 66.793478 54.3872589 121.15918 121.229029 121.15918h242.481214c66.793478 0 121.15918-54.364538 121.15918-121.182453v-242.481272c0-66.8167518-54.364538-121.205727-121.182453-121.205727z" fill="#2f3a3e"/><path d="m217.596658 260.54693-81.635827 72.547725c-4.613696 4.090926-10.386735 6.136505-16.090945 6.136505-6.681675 0-13.341241-2.750053-18.13664-8.113546-8.8862092-10.023094-8.0000901-25.341376 2.022772-34.227585l61.225415-54.455303-61.225415-54.432612c-10.0230949-8.886209-10.9092139-24.227763-2.022772-34.227585 8.9089-10.000403 24.205072-10.931905 34.227585-2.000022l81.612554 72.524452c5.159156 4.613695 8.113675 11.20478 8.113675 18.13664.022562 6.93186-2.932002 13.500079-8.090984 18.113949z" fill="#f0f"/><circle cx="302.198201" cy="313.325576" fill="#0f0" r="24.250575"/></g></g></svg>