<svg height="490" width="2003" xmlns="http://www.w3.org/2000/svg"><g fill="none" fill-rule="evenodd"><style></style><g fill="#2f3a3e" fill-rule="nonzero"><path d="M559.238 448.94c0-1.729-.203-3.263-.61-4.603-.407-1.34-1.12-2.551-2.137-3.636s-2.441-2.12-4.272-3.103-4.154-1.984-6.969-3.001c-3.052-1.085-5.815-2.298-8.29-3.637s-4.587-2.874-6.333-4.603a18.438 18.438 0 01-4.044-5.952c-.95-2.238-1.424-4.798-1.424-7.68 0-2.882.5-5.544 1.5-7.986 1-2.441 2.425-4.57 4.273-6.383 1.848-1.815 4.078-3.23 6.689-4.248 2.61-1.017 5.527-1.526 8.748-1.526 4.816 0 8.876 1.06 12.182 3.18 3.307 2.119 5.808 4.882 7.503 8.29s2.543 7.045 2.543 10.91h-9.359c0-2.78-.45-5.247-1.348-7.4s-2.289-3.849-4.17-5.086-4.333-1.857-7.35-1.857c-2.713 0-4.943.526-6.69 1.577-1.746 1.051-3.034 2.475-3.865 4.273-.83 1.797-1.246 3.848-1.246 6.154 0 1.56.271 2.976.814 4.247.542 1.272 1.381 2.45 2.517 3.535s2.56 2.086 4.273 3.002c1.712.915 3.739 1.797 6.078 2.644 3.629 1.187 6.731 2.51 9.309 3.968 2.577 1.458 4.68 3.094 6.307 4.908a17.336 17.336 0 013.586 6.155c.763 2.289 1.144 4.875 1.144 7.757 0 3.018-.5 5.748-1.5 8.19-1 2.44-2.45 4.526-4.35 6.256-1.898 1.729-4.187 3.06-6.866 3.992-2.679.933-5.697 1.4-9.054 1.4-2.916 0-5.773-.476-8.57-1.425a23.572 23.572 0 01-7.605-4.273c-2.272-1.899-4.086-4.247-5.442-7.044-1.357-2.798-2.035-6.045-2.035-9.741h9.36c0 2.543.372 4.722 1.118 6.536.746 1.814 1.78 3.315 3.103 4.502a12.594 12.594 0 004.552 2.62c1.713.559 3.552.838 5.52.838 2.712 0 4.992-.474 6.84-1.424 1.849-.95 3.239-2.306 4.171-4.069s1.4-3.849 1.4-6.256zM589.3 412.623v55.036h-8.953v-55.036zm-9.462-14.598c0-1.526.424-2.815 1.272-3.866.848-1.051 2.12-1.577 3.815-1.577 1.695 0 2.975.526 3.84 1.577.865 1.051 1.297 2.34 1.297 3.866 0 1.458-.432 2.704-1.297 3.739s-2.145 1.55-3.84 1.55c-1.696 0-2.967-.516-3.815-1.55-.848-1.035-1.272-2.28-1.272-3.739zM612.545 423.56v44.099h-8.953v-55.036h8.444zm-1.832 14.496l-4.17-.153c-.034-3.764.339-7.248 1.118-10.453.78-3.204 1.959-5.993 3.536-8.367 1.576-2.374 3.56-4.213 5.95-5.519s5.18-1.958 8.368-1.958c2.102 0 4.06.364 5.875 1.093s3.4 1.874 4.756 3.434 2.416 3.56 3.179 6.002c.763 2.441 1.144 5.392 1.144 8.85v36.674h-9.003v-36.216c0-2.882-.381-5.188-1.144-6.917s-1.84-2.993-3.23-3.79c-1.39-.797-3.052-1.195-4.985-1.195-2.204 0-4.044.491-5.519 1.475s-2.645 2.34-3.51 4.069c-.864 1.73-1.474 3.705-1.83 5.926-.357 2.22-.535 4.57-.535 7.045zm29.655-5.189l-6.002 1.933c-.034-3.018.339-5.917 1.119-8.698.78-2.78 1.94-5.256 3.484-7.426s3.467-3.891 5.773-5.163c2.306-1.271 4.985-1.907 8.037-1.907 2.509 0 4.73.39 6.663 1.17s3.569 1.975 4.908 3.586c1.34 1.61 2.349 3.67 3.027 6.18.678 2.51 1.017 5.493 1.017 8.952v36.165h-9.003v-36.267c0-3.086-.381-5.485-1.144-7.197-.763-1.713-1.84-2.916-3.23-3.611-1.39-.696-3.052-1.043-4.985-1.043-1.56 0-2.942.356-4.146 1.068s-2.212 1.687-3.026 2.925c-.814 1.237-1.433 2.653-1.857 4.247-.423 1.594-.635 3.29-.635 5.086zM690.978 423.203v65.616h-9.003v-76.196h8.19zm30.773 14.446v5.137c0 4.34-.398 8.13-1.195 11.368-.797 3.239-1.967 5.935-3.51 8.088s-3.433 3.764-5.671 4.832c-2.238 1.068-4.798 1.602-7.68 1.602s-5.384-.55-7.503-1.653c-2.12-1.102-3.9-2.704-5.341-4.807-1.441-2.102-2.577-4.637-3.408-7.604-.83-2.967-1.399-6.299-1.704-9.995v-7.833c.305-3.9.865-7.4 1.679-10.504.813-3.102 1.94-5.747 3.382-7.935 1.441-2.187 3.221-3.857 5.34-5.01 2.12-1.153 4.604-1.73 7.453-1.73 2.95 0 5.552.51 7.807 1.527 2.255 1.017 4.154 2.585 5.697 4.705 1.543 2.12 2.704 4.815 3.484 8.087.78 3.273 1.17 7.18 1.17 11.725zm-9.003 5.137v-5.137c0-3.052-.229-5.714-.686-7.986-.458-2.272-1.179-4.154-2.162-5.646s-2.221-2.611-3.713-3.357-3.29-1.12-5.392-1.12c-1.797 0-3.383.374-4.756 1.12s-2.552 1.755-3.535 3.026c-.983 1.272-1.797 2.713-2.441 4.324a25.284 25.284 0 00-1.425 5.01v15.412a32.624 32.624 0 002.29 6.13c.949 1.915 2.229 3.467 3.84 4.653 1.61 1.187 3.653 1.78 6.129 1.78 2.068 0 3.848-.372 5.34-1.118s2.722-1.874 3.688-3.383c.967-1.509 1.679-3.408 2.137-5.697.457-2.289.686-4.96.686-8.011zM743.013 389.53v78.129h-8.952V389.53zM770.022 461.962l12.258-49.339h9.563l-18.159 63.53c-.44 1.357-1.025 2.823-1.755 4.4a22.683 22.683 0 01-2.772 4.502 13.875 13.875 0 01-4.018 3.484c-1.56.899-3.391 1.348-5.493 1.348-.645 0-1.467-.102-2.467-.305-1-.204-1.721-.373-2.162-.509v-7.63c.203.034.525.077.966.127.441.051.763.077.967.077 1.763 0 3.264-.28 4.501-.84s2.298-1.492 3.18-2.797c.881-1.306 1.627-3.094 2.237-5.366zm-7.935-49.339l10.936 42.727 2.34 9.918-6.41 3.46-16.683-56.105zM853.39 456.977v-67.446h8.952v78.128h-8.19zm-30.774-14.191v-5.137c0-4.544.441-8.452 1.323-11.725.881-3.272 2.136-5.968 3.764-8.087s3.577-3.688 5.85-4.705c2.271-1.017 4.78-1.526 7.527-1.526 2.849 0 5.299.576 7.35 1.73 2.052 1.152 3.773 2.822 5.163 5.01 1.39 2.187 2.484 4.832 3.28 7.934.798 3.103 1.332 6.604 1.603 10.504v6.867c-.305 3.865-.856 7.341-1.653 10.427-.797 3.086-1.89 5.714-3.28 7.884-1.391 2.17-3.12 3.832-5.19 4.985-2.068 1.153-4.526 1.73-7.375 1.73-2.712 0-5.188-.535-7.426-1.603-2.238-1.068-4.18-2.679-5.824-4.832-1.644-2.153-2.908-4.85-3.79-8.088-.88-3.238-1.322-7.028-1.322-11.368zm9.003-5.137v5.137c0 3.052.22 5.705.662 7.96.44 2.255 1.136 4.12 2.085 5.595.95 1.476 2.162 2.57 3.637 3.281s3.247 1.068 5.315 1.068c2.51 0 4.561-.61 6.155-1.83s2.874-2.84 3.84-4.858c.967-2.018 1.738-4.197 2.315-6.536V433.02c-.34-1.73-.831-3.4-1.476-5.01-.644-1.61-1.45-3.052-2.416-4.324a10.91 10.91 0 00-3.51-3.026c-1.373-.746-2.975-1.12-4.806-1.12-2.069 0-3.857.374-5.366 1.12s-2.73 1.865-3.663 3.357-1.627 3.374-2.085 5.646c-.458 2.272-.687 4.934-.687 7.986zM895.912 468.676c-3.289 0-6.256-.491-8.9-1.475-2.646-.983-4.9-2.484-6.766-4.501-1.865-2.018-3.29-4.57-4.273-7.656-.983-3.085-1.475-6.73-1.475-10.936v-6.205c0-4.85.568-8.952 1.704-12.31 1.136-3.356 2.67-6.06 4.604-8.112 1.932-2.052 4.12-3.544 6.561-4.476s4.951-1.4 7.528-1.4c3.459 0 6.41.56 8.85 1.68a14.415 14.415 0 015.952 4.984c1.526 2.204 2.653 4.917 3.382 8.139.73 3.221 1.094 6.934 1.094 11.139v5.239h-34.385v-7.68h25.382v-1.272c-.136-2.849-.517-5.358-1.145-7.528-.627-2.17-1.653-3.874-3.077-5.112s-3.442-1.857-6.053-1.857c-1.661 0-3.196.28-4.603.84-1.407.56-2.611 1.526-3.611 2.899s-1.78 3.264-2.34 5.671-.84 5.46-.84 9.156v6.205c0 2.95.28 5.485.84 7.605.56 2.12 1.39 3.866 2.492 5.239 1.102 1.373 2.459 2.39 4.07 3.052s3.45.992 5.518.992c3.018 0 5.51-.585 7.477-1.755a18.836 18.836 0 005.138-4.502l4.73 5.646c-.983 1.39-2.263 2.722-3.84 3.993-1.577 1.272-3.51 2.306-5.799 3.103-2.289.797-5.027 1.195-8.215 1.195zM951.762 453.57c0-1.391-.339-2.612-1.017-3.663s-1.789-2.068-3.332-3.052-3.62-2.034-6.23-3.153c-2.544-1.052-4.825-2.094-6.842-3.129-2.018-1.034-3.722-2.161-5.112-3.382-1.39-1.22-2.45-2.637-3.18-4.247-.728-1.611-1.093-3.518-1.093-5.723s.416-4.247 1.246-6.129 2.01-3.535 3.536-4.96c1.526-1.423 3.357-2.534 5.493-3.33 2.136-.798 4.527-1.196 7.172-1.196 3.764 0 6.968.729 9.613 2.187 2.645 1.458 4.671 3.45 6.079 5.977 1.407 2.526 2.11 5.366 2.11 8.52h-8.952c0-1.526-.339-2.968-1.017-4.324s-1.678-2.467-3-3.332-2.934-1.297-4.833-1.297c-2 0-3.628.356-4.883 1.068-1.255.713-2.162 1.637-2.721 2.773s-.84 2.382-.84 3.738c0 1.017.144 1.89.433 2.62.288.729.788 1.407 1.5 2.034s1.687 1.272 2.925 1.933c1.238.661 2.823 1.416 4.756 2.264 3.73 1.458 6.867 2.933 9.41 4.425s4.476 3.238 5.798 5.239c1.323 2 1.984 4.476 1.984 7.426 0 2.408-.432 4.587-1.297 6.536a14.212 14.212 0 01-3.688 5.01c-1.593 1.39-3.5 2.45-5.722 3.18-2.221.729-4.705 1.093-7.452 1.093-4.137 0-7.638-.822-10.503-2.467-2.866-1.644-5.036-3.798-6.51-6.46a17.404 17.404 0 01-2.214-8.57h9.004c.101 2.577.686 4.578 1.754 6.002 1.069 1.424 2.366 2.407 3.892 2.95s3.051.814 4.577.814c2.001 0 3.68-.297 5.036-.89 1.356-.594 2.382-1.45 3.077-2.57.695-1.118 1.043-2.424 1.043-3.916zM982.23 412.623v55.036h-8.952v-55.036zm-9.46-14.598c0-1.526.423-2.815 1.27-3.866.849-1.051 2.12-1.577 3.816-1.577 1.695 0 2.975.526 3.84 1.577.865 1.051 1.297 2.34 1.297 3.866 0 1.458-.432 2.704-1.297 3.739s-2.145 1.55-3.84 1.55c-1.696 0-2.967-.516-3.815-1.55s-1.272-2.28-1.272-3.739zM1026.279 412.623h8.088v55.494c0 4.849-.84 8.85-2.518 12.004-1.679 3.153-4.01 5.485-6.994 6.994-2.984 1.509-6.426 2.263-10.326 2.263-1.39 0-3.136-.254-5.239-.763-2.102-.508-4.205-1.28-6.307-2.314s-3.832-2.331-5.188-3.891l3.713-6.257c1.933 1.967 3.984 3.374 6.155 4.222 2.17.848 4.238 1.272 6.205 1.272 2.34 0 4.374-.424 6.104-1.272 1.73-.848 3.069-2.23 4.018-4.145s1.424-4.468 1.424-7.656V424.73zm-31.638 30.163v-5.137c0-4.544.424-8.452 1.272-11.725.847-3.272 2.077-5.968 3.687-8.087 1.611-2.12 3.552-3.688 5.824-4.705s4.816-1.526 7.63-1.526c2.849 0 5.307.576 7.376 1.73 2.068 1.152 3.789 2.822 5.162 5.01 1.374 2.187 2.459 4.832 3.256 7.934.797 3.103 1.348 6.604 1.653 10.504v6.867c-.305 3.865-.856 7.341-1.653 10.427-.797 3.086-1.9 5.714-3.307 7.884s-3.145 3.832-5.213 4.985c-2.069 1.153-4.527 1.73-7.376 1.73-2.78 0-5.29-.535-7.528-1.603-2.238-1.068-4.162-2.679-5.773-4.832s-2.848-4.85-3.713-8.088c-.865-3.238-1.297-7.028-1.297-11.368zm9.003-5.137v5.137c0 3.052.22 5.705.661 7.96.441 2.255 1.128 4.12 2.06 5.595.933 1.476 2.137 2.57 3.612 3.281 1.475.712 3.247 1.068 5.315 1.068 2.51 0 4.561-.61 6.155-1.83 1.594-1.221 2.874-2.84 3.84-4.858.967-2.018 1.738-4.197 2.315-6.536V433.02c-.34-1.73-.823-3.4-1.45-5.01s-1.433-3.052-2.416-4.324a11.179 11.179 0 00-3.535-3.026c-1.374-.746-2.976-1.12-4.807-1.12-2.069 0-3.849.374-5.34 1.12s-2.714 1.865-3.663 3.357-1.645 3.374-2.086 5.646-.66 4.934-.66 7.986zM1056.849 424.373v43.286h-9.003v-55.036h8.494zm-2.187 13.683l-3.663-.153c-.034-3.764.399-7.248 1.297-10.453.899-3.204 2.188-5.993 3.866-8.367 1.679-2.374 3.688-4.213 6.028-5.519s4.933-1.958 7.782-1.958c2.238 0 4.273.364 6.104 1.093s3.39 1.89 4.68 3.485c1.288 1.593 2.28 3.653 2.975 6.18.695 2.526 1.043 5.603 1.043 9.232v36.063h-9.003v-36.165c0-2.882-.314-5.197-.941-6.943-.628-1.746-1.577-3.018-2.849-3.815s-2.874-1.195-4.807-1.195c-1.763 0-3.408.491-4.934 1.475s-2.856 2.34-3.992 4.069c-1.136 1.73-2.018 3.705-2.645 5.926-.628 2.22-.941 4.57-.941 7.045zM1117.988 468.676c-3.289 0-6.256-.491-8.901-1.475-2.645-.983-4.9-2.484-6.765-4.501-1.865-2.018-3.29-4.57-4.273-7.656-.983-3.085-1.475-6.73-1.475-10.936v-6.205c0-4.85.568-8.952 1.704-12.31 1.136-3.356 2.67-6.06 4.603-8.112 1.933-2.052 4.12-3.544 6.562-4.476s4.95-1.4 7.528-1.4c3.459 0 6.409.56 8.85 1.68a14.415 14.415 0 015.952 4.984c1.526 2.204 2.653 4.917 3.382 8.139.73 3.221 1.094 6.934 1.094 11.139v5.239h-34.385v-7.68h25.382v-1.272c-.136-2.849-.517-5.358-1.145-7.528-.627-2.17-1.653-3.874-3.077-5.112s-3.442-1.857-6.053-1.857c-1.662 0-3.196.28-4.603.84-1.408.56-2.611 1.526-3.612 2.899s-1.78 3.264-2.34 5.671-.839 5.46-.839 9.156v6.205c0 2.95.28 5.485.84 7.605.56 2.12 1.39 3.866 2.492 5.239a10.021 10.021 0 004.07 3.052c1.61.661 3.45.992 5.518.992 3.018 0 5.51-.585 7.477-1.755a18.836 18.836 0 005.137-4.502l4.73 5.646c-.983 1.39-2.263 2.722-3.84 3.993-1.576 1.272-3.51 2.306-5.798 3.103-2.289.797-5.027 1.195-8.215 1.195zM1175.974 456.977v-67.446h8.952v78.128h-8.189zm-30.773-14.191v-5.137c0-4.544.44-8.452 1.322-11.725.882-3.272 2.137-5.968 3.764-8.087 1.628-2.12 3.578-3.688 5.85-4.705s4.781-1.526 7.528-1.526c2.848 0 5.298.576 7.35 1.73 2.051 1.152 3.772 2.822 5.163 5.01s2.484 4.832 3.28 7.934c.797 3.103 1.331 6.604 1.603 10.504v6.867c-.305 3.865-.857 7.341-1.653 10.427-.797 3.086-1.89 5.714-3.281 7.884-1.39 2.17-3.12 3.832-5.188 4.985-2.069 1.153-4.527 1.73-7.376 1.73-2.713 0-5.188-.535-7.426-1.603-2.238-1.068-4.18-2.679-5.824-4.832-1.645-2.153-2.908-4.85-3.79-8.088-.881-3.238-1.322-7.028-1.322-11.368zm9.003-5.137v5.137c0 3.052.22 5.705.661 7.96.441 2.255 1.136 4.12 2.086 5.595.95 1.476 2.162 2.57 3.637 3.281 1.475.712 3.246 1.068 5.315 1.068 2.51 0 4.56-.61 6.155-1.83 1.593-1.221 2.873-2.84 3.84-4.858.966-2.018 1.738-4.197 2.314-6.536V433.02c-.339-1.73-.83-3.4-1.475-5.01s-1.45-3.052-2.416-4.324a10.91 10.91 0 00-3.51-3.026c-1.373-.746-2.975-1.12-4.806-1.12-2.069 0-3.858.374-5.367 1.12s-2.73 1.865-3.662 3.357c-.932 1.492-1.627 3.374-2.085 5.646-.458 2.272-.687 4.934-.687 7.986zM1242.81 412.623v7.223h-25.686v-7.223zm-17.293-13.377h9.003v54.781c0 1.865.229 3.272.686 4.222.458.95 1.043 1.577 1.755 1.882a5.749 5.749 0 002.29.458c.61 0 1.288-.077 2.034-.23.746-.152 1.254-.279 1.526-.38l-.051 7.68c-.61.237-1.424.466-2.442.687-1.017.22-2.306.33-3.865.33-1.933 0-3.73-.458-5.392-1.373-1.662-.916-3.001-2.45-4.018-4.603-1.018-2.154-1.526-5.061-1.526-8.724zM1250.644 442.786v-5.24c0-4.272.542-8.027 1.627-11.266 1.086-3.238 2.595-5.942 4.527-8.113 1.933-2.17 4.188-3.806 6.765-4.908 2.578-1.102 5.341-1.653 8.291-1.653 3.018 0 5.816.55 8.393 1.653 2.577 1.102 4.84 2.738 6.79 4.908 1.95 2.17 3.468 4.875 4.553 8.113 1.085 3.239 1.628 6.994 1.628 11.267v5.239c0 4.273-.543 8.028-1.628 11.267-1.085 3.238-2.594 5.942-4.527 8.113-1.933 2.17-4.188 3.797-6.765 4.883-2.577 1.085-5.358 1.627-8.342 1.627s-5.765-.542-8.342-1.627c-2.577-1.086-4.84-2.713-6.79-4.883-1.95-2.17-3.467-4.875-4.553-8.113-1.085-3.239-1.627-6.994-1.627-11.267zm9.003-5.24v5.24c0 3.018.305 5.663.915 7.935.61 2.272 1.476 4.17 2.595 5.697s2.424 2.67 3.916 3.433c1.492.763 3.12 1.145 4.883 1.145 2.035 0 3.823-.382 5.366-1.145 1.543-.763 2.823-1.907 3.84-3.433 1.018-1.526 1.781-3.425 2.29-5.697s.763-4.917.763-7.935v-5.24c0-3.017-.306-5.654-.916-7.909-.61-2.255-1.475-4.154-2.594-5.696-1.12-1.543-2.433-2.696-3.942-3.46-1.51-.762-3.145-1.144-4.909-1.144-1.729 0-3.34.382-4.832 1.145s-2.789 1.916-3.89 3.459c-1.103 1.542-1.96 3.441-2.57 5.696-.61 2.255-.915 4.892-.915 7.91zM1340.217 467.659h-9.003v-59.817c0-4.171.703-7.698 2.11-10.58 1.408-2.882 3.425-5.07 6.053-6.562s5.74-2.238 9.334-2.238c2.137 0 4.188.297 6.155.89a62.515 62.515 0 016.104 2.213l-1.526 7.935c-1.221-.61-2.713-1.195-4.476-1.755a18.221 18.221 0 00-5.545-.84c-3.39 0-5.773.908-7.146 2.722-1.374 1.814-2.06 4.553-2.06 8.215zm8.901-55.036v7.223h-25.076v-7.223zm16.175 0v55.036h-9.003v-55.036zM1399.881 412.623v7.223h-25.687v-7.223zm-17.294-13.377h9.003v54.781c0 1.865.23 3.272.687 4.222.458.95 1.043 1.577 1.755 1.882a5.749 5.749 0 002.289.458c.61 0 1.288-.077 2.034-.23.746-.152 1.255-.279 1.526-.38l-.05 7.68c-.611.237-1.425.466-2.442.687-1.017.22-2.306.33-3.866.33-1.933 0-3.73-.458-5.392-1.373-1.661-.916-3-2.45-4.018-4.603s-1.526-5.061-1.526-8.724zM1447.287 461.962l12.259-49.339h9.562l-18.159 63.53c-.44 1.357-1.025 2.823-1.754 4.4a22.683 22.683 0 01-2.772 4.502 13.875 13.875 0 01-4.019 3.484c-1.56.899-3.39 1.348-5.493 1.348-.644 0-1.467-.102-2.467-.305-1-.204-1.721-.373-2.162-.509v-7.63c.204.034.526.077.967.127.44.051.763.077.966.077 1.763 0 3.264-.28 4.502-.84s2.297-1.492 3.179-2.797c.881-1.306 1.627-3.094 2.238-5.366zm-7.935-49.339l10.936 42.727 2.34 9.918-6.409 3.46-16.684-56.105zM1475.263 442.786v-5.24c0-4.272.542-8.027 1.628-11.266 1.085-3.238 2.594-5.942 4.527-8.113 1.932-2.17 4.187-3.806 6.765-4.908 2.577-1.102 5.34-1.653 8.29-1.653 3.018 0 5.816.55 8.393 1.653s4.84 2.738 6.79 4.908c1.95 2.17 3.468 4.875 4.553 8.113 1.085 3.239 1.628 6.994 1.628 11.267v5.239c0 4.273-.543 8.028-1.628 11.267-1.085 3.238-2.594 5.942-4.527 8.113-1.933 2.17-4.188 3.797-6.765 4.883-2.577 1.085-5.358 1.627-8.342 1.627s-5.764-.542-8.342-1.627c-2.577-1.086-4.84-2.713-6.79-4.883-1.95-2.17-3.467-4.875-4.552-8.113-1.086-3.239-1.628-6.994-1.628-11.267zm9.003-5.24v5.24c0 3.018.305 5.663.916 7.935s1.475 4.17 2.594 5.697 2.424 2.67 3.916 3.433c1.492.763 3.12 1.145 4.883 1.145 2.035 0 3.824-.382 5.366-1.145 1.543-.763 2.823-1.907 3.84-3.433 1.018-1.526 1.781-3.425 2.29-5.697.508-2.272.763-4.917.763-7.935v-5.24c0-3.017-.306-5.654-.916-7.909-.61-2.255-1.475-4.154-2.594-5.696-1.119-1.543-2.433-2.696-3.942-3.46-1.509-.762-3.145-1.144-4.908-1.144-1.73 0-3.34.382-4.833 1.145-1.492.763-2.789 1.916-3.89 3.459-1.103 1.542-1.96 3.441-2.57 5.696-.61 2.255-.915 4.892-.915 7.91zM1557.257 454.943v-42.32h9.003v55.036h-8.545zm1.679-11.597l3.56-.102c0 3.662-.314 7.045-.94 10.147-.628 3.103-1.646 5.79-3.053 8.062-1.407 2.272-3.264 4.044-5.57 5.316-2.305 1.271-5.137 1.907-8.494 1.907-2.272 0-4.332-.39-6.18-1.17-1.848-.78-3.442-1.983-4.781-3.611-1.34-1.628-2.374-3.747-3.103-6.358-.73-2.611-1.094-5.748-1.094-9.41v-35.504h8.953v35.606c0 2.475.22 4.518.66 6.129.442 1.61 1.035 2.882 1.781 3.815.746.932 1.577 1.585 2.492 1.958.916.373 1.849.56 2.798.56 3.188 0 5.73-.772 7.63-2.315 1.899-1.543 3.264-3.628 4.094-6.256s1.247-5.553 1.247-8.774zM1588.793 421.27v46.389h-9.003v-55.036h8.698zm13.683-8.952l.05 8.749c-.745-.17-1.415-.28-2.008-.33-.594-.052-1.28-.077-2.06-.077-1.696 0-3.18.339-4.451 1.017-1.272.678-2.365 1.628-3.281 2.849-.916 1.22-1.645 2.67-2.187 4.348s-.916 3.519-1.12 5.52l-2.339 1.525c0-3.323.263-6.443.788-9.359.526-2.916 1.348-5.502 2.467-7.757 1.12-2.255 2.552-4.018 4.298-5.29 1.747-1.271 3.84-1.907 6.282-1.907.543 0 1.213.076 2.01.229.796.152 1.313.313 1.55.483zM1662.14 453.57c0-1.391-.339-2.612-1.017-3.663s-1.789-2.068-3.332-3.052-3.62-2.034-6.23-3.153c-2.544-1.052-4.824-2.094-6.842-3.129-2.018-1.034-3.722-2.161-5.112-3.382-1.39-1.22-2.45-2.637-3.179-4.247-.729-1.611-1.094-3.518-1.094-5.723s.416-4.247 1.247-6.129 2.009-3.535 3.535-4.96c1.526-1.423 3.357-2.534 5.493-3.33 2.137-.798 4.527-1.196 7.172-1.196 3.764 0 6.969.729 9.614 2.187 2.645 1.458 4.67 3.45 6.078 5.977 1.407 2.526 2.11 5.366 2.11 8.52h-8.951c0-1.526-.34-2.968-1.018-4.324-.678-1.356-1.678-2.467-3-3.332-1.323-.864-2.934-1.297-4.833-1.297-2 0-3.628.356-4.883 1.068-1.255.713-2.162 1.637-2.721 2.773-.56 1.136-.84 2.382-.84 3.738 0 1.017.145 1.89.433 2.62.288.729.788 1.407 1.5 2.034s1.687 1.272 2.925 1.933 2.823 1.416 4.756 2.264c3.73 1.458 6.867 2.933 9.41 4.425s4.476 3.238 5.799 5.239c1.322 2 1.983 4.476 1.983 7.426 0 2.408-.432 4.587-1.297 6.536a14.212 14.212 0 01-3.687 5.01c-1.594 1.39-3.502 2.45-5.723 3.18-2.22.729-4.705 1.093-7.451 1.093-4.137 0-7.639-.822-10.504-2.467-2.865-1.644-5.036-3.798-6.51-6.46a17.404 17.404 0 01-2.213-8.57h9.003c.101 2.577.686 4.578 1.755 6.002 1.068 1.424 2.365 2.407 3.89 2.95 1.527.542 3.053.814 4.579.814 2 0 3.679-.297 5.035-.89 1.357-.594 2.382-1.45 3.078-2.57.695-1.118 1.042-2.424 1.042-3.916zM1691.947 389.53v78.129h-9.003V389.53zm-2.187 48.526l-3.662-.153c-.034-3.764.398-7.248 1.297-10.453.898-3.204 2.187-5.993 3.865-8.367 1.679-2.374 3.688-4.213 6.028-5.519 2.34-1.305 4.934-1.958 7.782-1.958 2.238 0 4.273.364 6.104 1.093 1.831.73 3.39 1.89 4.68 3.485 1.288 1.593 2.28 3.653 2.975 6.18.695 2.526 1.043 5.603 1.043 9.232v36.063h-9.003v-36.165c0-2.882-.314-5.197-.941-6.943-.628-1.746-1.577-3.018-2.849-3.815s-2.874-1.195-4.806-1.195c-1.764 0-3.408.491-4.934 1.475-1.526.983-2.857 2.34-3.993 4.069-1.136 1.73-2.018 3.705-2.645 5.926-.627 2.22-.941 4.57-.941 7.045zM1752.934 468.676c-3.29 0-6.256-.491-8.901-1.475-2.645-.983-4.9-2.484-6.765-4.501-1.865-2.018-3.29-4.57-4.273-7.656-.983-3.085-1.475-6.73-1.475-10.936v-6.205c0-4.85.568-8.952 1.704-12.31 1.136-3.356 2.67-6.06 4.603-8.112 1.933-2.052 4.12-3.544 6.562-4.476s4.95-1.4 7.528-1.4c3.458 0 6.409.56 8.85 1.68a14.415 14.415 0 015.951 4.984c1.526 2.204 2.654 4.917 3.383 8.139s1.093 6.934 1.093 11.139v5.239h-34.384v-7.68h25.381v-1.272c-.135-2.849-.517-5.358-1.144-7.528-.627-2.17-1.653-3.874-3.077-5.112-1.425-1.238-3.442-1.857-6.053-1.857-1.662 0-3.196.28-4.604.84-1.407.56-2.61 1.526-3.611 2.899s-1.78 3.264-2.34 5.671-.839 5.46-.839 9.156v6.205c0 2.95.28 5.485.84 7.605.559 2.12 1.39 3.866 2.492 5.239s2.458 2.39 4.069 3.052 3.45.992 5.519.992c3.018 0 5.51-.585 7.477-1.755a18.836 18.836 0 005.137-4.502l4.73 5.646c-.983 1.39-2.263 2.722-3.84 3.993-1.577 1.272-3.51 2.306-5.798 3.103-2.29.797-5.027 1.195-8.215 1.195zM1791.744 389.53v78.129h-8.952V389.53zM1815.65 389.53v78.129h-8.952V389.53zM1863.463 389.53v78.129h-8.952V389.53zM1887.37 412.623v55.036h-8.952v-55.036zm-9.461-14.598c0-1.526.424-2.815 1.271-3.866.848-1.051 2.12-1.577 3.815-1.577s2.976.526 3.84 1.577c.865 1.051 1.298 2.34 1.298 3.866 0 1.458-.433 2.704-1.297 3.739-.865 1.034-2.145 1.55-3.84 1.55s-2.968-.516-3.816-1.55c-.847-1.035-1.271-2.28-1.271-3.739zM1914.582 467.659h-9.003v-60.834c0-3.968.636-7.316 1.908-10.046 1.271-2.73 3.086-4.798 5.442-6.206s5.163-2.11 8.418-2.11c.916 0 1.84.067 2.773.203.932.135 1.822.339 2.67.61l-.407 7.68c-.543-.169-1.195-.287-1.958-.355a24.474 24.474 0 00-2.162-.102c-1.628 0-3.018.398-4.17 1.195-1.154.797-2.027 1.959-2.62 3.485-.594 1.526-.89 3.408-.89 5.646zm9.36-55.036v7.223h-25.535v-7.223zM1953.036 468.676c-3.289 0-6.256-.491-8.901-1.475-2.645-.983-4.9-2.484-6.765-4.501-1.865-2.018-3.29-4.57-4.273-7.656-.983-3.085-1.475-6.73-1.475-10.936v-6.205c0-4.85.568-8.952 1.704-12.31 1.136-3.356 2.67-6.06 4.603-8.112 1.933-2.052 4.12-3.544 6.562-4.476s4.95-1.4 7.528-1.4c3.459 0 6.409.56 8.85 1.68a14.415 14.415 0 015.952 4.984c1.526 2.204 2.653 4.917 3.382 8.139s1.094 6.934 1.094 11.139v5.239h-34.385v-7.68h25.382v-1.272c-.136-2.849-.518-5.358-1.145-7.528s-1.653-3.874-3.077-5.112-3.442-1.857-6.053-1.857c-1.662 0-3.196.28-4.603.84-1.408.56-2.611 1.526-3.612 2.899-1 1.373-1.78 3.264-2.34 5.671s-.839 5.46-.839 9.156v6.205c0 2.95.28 5.485.84 7.605.559 2.12 1.39 3.866 2.492 5.239s2.458 2.39 4.069 3.052 3.45.992 5.519.992c3.018 0 5.51-.585 7.477-1.755a18.836 18.836 0 005.137-4.502l4.73 5.646c-.983 1.39-2.263 2.722-3.84 3.993-1.576 1.272-3.51 2.306-5.798 3.103-2.289.797-5.027 1.195-8.215 1.195zM1982.741 462.674c0-1.594.5-2.942 1.5-4.044s2.45-1.653 4.35-1.653c1.899 0 3.348.551 4.349 1.653s1.5 2.45 1.5 4.044c0 1.56-.5 2.882-1.5 3.968s-2.45 1.627-4.35 1.627c-1.898 0-3.348-.542-4.348-1.627s-1.5-2.408-1.5-3.968z"/><g><path d="M612.972 352.685h-49.385l.37-49.94h49.015c9.248 0 16.8-2.035 22.658-6.104 5.857-4.07 10.204-10.82 13.04-20.254 2.836-9.433 4.254-22.04 4.254-37.824v-41.247c0-11.838-.77-21.826-2.312-29.964-1.542-8.139-3.915-14.674-7.121-19.606s-7.46-8.54-12.763-10.82c-5.302-2.282-11.59-3.422-18.866-3.422h-49.2V83.379h49.2c15.784 0 30.118 2.558 43.004 7.676 12.886 5.117 24.014 12.639 33.386 22.565 9.371 9.926 16.585 21.918 21.64 35.975s7.584 30.088 7.584 48.09v40.878c0 17.88-2.528 33.879-7.584 47.997s-12.238 26.111-21.548 35.976-20.346 17.355-33.108 22.473c-12.763 5.117-26.85 7.676-42.264 7.676zM600.579 83.379v269.306h-63.257V83.379zM945.72 197.87v40.693c0 19.359-2.404 36.376-7.213 51.05-4.81 14.673-11.653 26.973-20.531 36.9-8.878 9.926-19.39 17.386-31.536 22.38s-25.618 7.491-40.415 7.491c-14.92 0-28.484-2.497-40.692-7.491-12.207-4.994-22.75-12.454-31.628-22.38-8.879-9.927-15.722-22.227-20.531-36.9-4.81-14.674-7.214-31.691-7.214-51.05V197.87c0-19.36 2.405-36.438 7.214-51.235 4.809-14.797 11.622-27.128 20.438-36.993 8.817-9.864 19.329-17.325 31.536-22.38 12.208-5.056 25.772-7.584 40.692-7.584 14.797 0 28.33 2.528 40.6 7.584 12.269 5.055 22.78 12.516 31.536 22.38 8.755 9.865 15.568 22.196 20.438 36.993s7.306 31.875 7.306 51.235zm-64.182 40.693V197.5c0-12.084-.74-22.38-2.22-30.89s-3.699-15.413-6.658-20.715c-2.96-5.302-6.659-9.186-11.098-11.653-4.439-2.466-9.68-3.699-15.722-3.699-6.289 0-11.652 1.233-16.092 3.7-4.439 2.466-8.107 6.35-11.005 11.652-2.898 5.302-5.025 12.208-6.381 20.716-1.356 8.508-2.035 18.805-2.035 30.889v41.062c0 11.96.679 22.164 2.035 30.61 1.356 8.448 3.483 15.384 6.381 20.81s6.628 9.402 11.19 11.93c4.563 2.527 9.927 3.791 16.092 3.791 5.919 0 11.129-1.264 15.63-3.792 4.5-2.527 8.2-6.504 11.097-11.93s5.087-12.361 6.567-20.808c1.48-8.447 2.22-18.65 2.22-30.611zM1080.373 83.379v269.306h-63.442V83.379zm65.292 0v50.125H953.49V83.379zM1236.297 83.379v269.306h-63.257V83.379zm82.679 112.087v49.94h-99.88v-49.94zm7.583-112.087v50.125h-107.463V83.379zM1419.226 83.379v269.306h-63.073V83.379zM1613.437 302.745v49.94h-113.198v-49.94zm-91.002-219.366v269.306h-63.257V83.379zM1799.694 302.745v49.94h-117.821v-49.94zm-95.81-219.366v269.306h-63.258V83.379zm80.459 106.908v48.276h-102.47v-48.276zm15.906-106.908v50.125h-118.376V83.379zM1938.602 281.104c0-4.192-.401-7.984-1.203-11.375-.801-3.391-2.342-6.566-4.624-9.526-2.28-2.96-5.703-5.95-10.265-8.97-4.562-3.022-10.666-6.197-18.311-9.526a295.88 295.88 0 01-28.3-13.41c-9.248-4.994-17.54-10.851-24.877-17.571s-13.225-14.612-17.664-23.676c-4.44-9.063-6.659-19.637-6.659-31.72 0-11.592 2.25-22.042 6.751-31.352 4.501-9.31 10.728-17.263 18.682-23.86s17.355-11.653 28.206-15.167 22.69-5.272 35.513-5.272c17.017 0 32.03 3.422 45.039 10.266 13.009 6.843 23.182 16.523 30.519 29.039 7.337 12.516 11.005 27.282 11.005 44.299h-63.072c0-6.782-.864-12.763-2.59-17.942s-4.408-9.248-8.046-12.207c-3.637-2.96-8.416-4.44-14.334-4.44-5.303 0-9.773 1.234-13.41 3.7-3.638 2.466-6.381 5.764-8.231 9.895s-2.775 8.663-2.775 13.595c0 4.07.925 7.738 2.775 11.005s4.408 6.32 7.676 9.156 7.09 5.549 11.468 8.138c4.377 2.59 9.094 5.118 14.15 7.584 12.207 4.562 23.027 9.649 32.46 15.26 9.433 5.61 17.356 11.96 23.768 19.05s11.252 15.137 14.52 24.138c3.267 9.002 4.901 19.175 4.901 30.52 0 12.083-1.942 22.811-5.826 32.183-3.884 9.371-9.526 17.294-16.924 23.767-7.399 6.474-16.308 11.376-26.728 14.705-10.42 3.33-22.164 4.994-35.235 4.994-11.96 0-23.706-1.757-35.235-5.271s-21.95-8.94-31.26-16.277c-9.309-7.337-16.738-16.77-22.287-28.3-5.55-11.529-8.324-25.247-8.324-41.154h63.628c0 7.892.616 14.55 1.85 19.976 1.232 5.426 3.175 9.772 5.826 13.04 2.65 3.268 6.073 5.61 10.265 7.029 4.193 1.418 9.372 2.127 15.537 2.127 5.672 0 10.08-1.202 13.225-3.607 3.144-2.405 5.333-5.61 6.566-9.618s1.85-8.416 1.85-13.225z"/></g></g><g transform="translate(.363 .808)"><path d="M121.229 0C54.389 0 0 54.387 0 121.206V363.71c0 66.794 54.387 121.16 121.229 121.16H363.71c66.794 0 121.16-54.365 121.16-121.183V121.206C484.87 54.389 430.504 0 363.686 0z" fill="#2f3a3e"/><path d="M217.597 260.547l-81.636 72.548a24.258 24.258 0 01-16.091 6.136 24.28 24.28 0 01-18.137-8.113c-8.886-10.023-8-25.342 2.023-34.228l61.225-54.455-61.225-54.433c-10.023-8.886-10.91-24.228-2.023-34.227 8.91-10 24.205-10.932 34.228-2l81.612 72.524a24.326 24.326 0 018.114 18.137c.023 6.931-2.932 13.5-8.09 18.114z" fill="#f0f"/><circle cx="302.198" cy="313.326" fill="#0f0" r="24.251"/></g></g></svg>
