<svg height="1024" viewBox="0 0 1024 1024" width="1024" xmlns="http://www.w3.org/2000/svg"><g fill="none" fill-rule="evenodd"><path d="m0 0h1024v1024h-1024z" fill="#2f3a3e"/><path d="m87 87h850v850h-850z" fill="#2f3a3e"/><path d="m468.457667 543.751611-143.111629 127.179738c-8.088035 7.171595-18.208458 10.757597-28.208219 10.757597-11.713306 0-23.387853-4.820978-31.794424-14.223446-15.577963-17.570979-14.024552-44.424681 3.546018-60.002644l107.331172-95.462831-107.331172-95.423052c-17.570978-15.577962-19.124389-42.472463-3.546018-60.002643 15.617741-17.5312 42.432684-19.164168 60.002643-3.506138l143.070831 127.138939c9.044255 8.088036 14.223673 19.642533 14.223673 31.794424.039551 12.151892-5.139946 23.666305-14.183895 31.754646z" fill="#f0f"/><circle cx="616.768342" cy="636.275179" fill="#0f0" r="42.512454"/></g></svg>